<?xml version="1.0" encoding="UTF-8"?>
<svg version="1.1" xmlns="http://www.w3.org/2000/svg" width="512" height="512">
<path d="M0 0 C1.85624401 -0.00532945 3.7124837 -0.01239743 5.56871521 -0.02104706 C10.65375577 -0.03964842 15.73850459 -0.03337796 20.82355714 -0.02289402 C26.31380377 -0.01589491 31.80399091 -0.03190541 37.29421997 -0.04489136 C48.04391871 -0.06652493 58.79351156 -0.06640603 69.54322492 -0.05826581 C78.28145279 -0.05196377 87.0196498 -0.05310474 95.75787735 -0.05953789 C97.00197033 -0.06043954 98.24606332 -0.0613412 99.52785609 -0.06227018 C102.05530198 -0.0641214 104.58274787 -0.06598396 107.11019374 -0.06785773 C124.07752453 -0.07972649 141.04484263 -0.08413854 158.01217461 -0.07292271 C159.00686111 -0.07226575 159.00686111 -0.07226575 160.02164229 -0.07159552 C165.40626691 -0.0679889 170.79089136 -0.06415403 176.17551581 -0.06030459 C197.17631372 -0.04545896 218.17698156 -0.05423522 239.17776489 -0.08226013 C262.78761286 -0.11370672 286.39740272 -0.12858413 310.0072757 -0.11846012 C312.52599024 -0.11743758 315.04470478 -0.11644297 317.56341934 -0.11547661 C319.42223614 -0.11476202 319.42223614 -0.11476202 321.31860479 -0.114033 C330.04349148 -0.11186992 338.76831752 -0.12166743 347.49319077 -0.13624763 C358.1301836 -0.15377539 368.7669997 -0.15364713 379.4039856 -0.13089598 C384.82931385 -0.11975774 390.25433078 -0.11658213 395.67964554 -0.13519669 C400.65031696 -0.15203164 405.62040623 -0.14560927 410.59104015 -0.1209799 C412.3850184 -0.11610613 414.17904388 -0.11958621 415.97298251 -0.13246734 C429.40047114 -0.22189091 440.15679586 1.63742066 450.82962036 10.57325745 C454.1450138 13.84910345 456.66746018 17.37449547 458.79446411 21.5146637 C459.28566652 22.41113702 459.28566652 22.41113702 459.78679222 23.32572091 C463.8472133 31.81143338 463.35513961 40.54354162 463.30912781 49.72019958 C463.31445726 51.5764436 463.32152524 53.43268329 463.33017486 55.2889148 C463.34877623 60.37395536 463.34250577 65.45870418 463.33202183 70.54375672 C463.32502272 76.03400336 463.34103322 81.52419049 463.35401917 87.01441956 C463.37565274 97.7641183 463.37553384 108.51371115 463.36739362 119.2634245 C463.36109158 128.00165237 463.36223254 136.73984939 463.3686657 145.47807693 C463.36956735 146.72216992 463.37046901 147.9662629 463.37139798 149.24805567 C463.3732492 151.77550157 463.37511176 154.30294745 463.37698554 156.83039333 C463.3888543 173.79772412 463.39326634 190.76504222 463.38205051 207.73237419 C463.38161254 208.39549853 463.38117457 209.05862286 463.38072333 209.74184188 C463.37711671 215.12646649 463.37328183 220.51109095 463.3694324 225.89571539 C463.35458677 246.89651331 463.36336302 267.89718114 463.39138794 288.89796448 C463.42283453 312.50781244 463.43771194 336.1176023 463.42758793 359.72747529 C463.42656539 362.24618982 463.42557078 364.76490437 463.42460442 367.28361893 C463.42412803 368.52283012 463.42365164 369.76204132 463.42316081 371.03880437 C463.42099773 379.76369106 463.43079523 388.48851711 463.44537544 397.21339035 C463.4629032 407.85038319 463.46277494 418.48719929 463.44002379 429.12418519 C463.42888555 434.54951344 463.42570993 439.97453036 463.44432449 445.39984512 C463.46115945 450.37051654 463.45473708 455.34060582 463.43010771 460.31123973 C463.42523394 462.10521799 463.42871402 463.89924347 463.44159514 465.6931821 C463.53101872 479.12067072 461.67170715 489.87699545 452.73587036 500.54981995 C449.46002435 503.86521339 445.93463233 506.38765976 441.79446411 508.5146637 C440.89799079 509.00586611 440.89799079 509.00586611 439.9834069 509.5069918 C431.49769443 513.56741289 422.76558619 513.0753392 413.58892822 513.02932739 C411.73268421 513.03465685 409.87644452 513.04172483 408.02021301 513.05037445 C402.93517245 513.06897581 397.85042363 513.06270535 392.76537108 513.05222142 C387.27512445 513.0452223 381.78493732 513.0612328 376.29470825 513.07421875 C365.54500951 513.09585232 354.79541666 513.09573342 344.04570331 513.08759321 C335.30747543 513.08129116 326.56927842 513.08243213 317.83105087 513.08886528 C316.58695789 513.08976694 315.3428649 513.09066859 314.06107213 513.09159757 C311.53362624 513.09344879 309.00618036 513.09531135 306.47873448 513.09718513 C289.51140369 513.10905389 272.54408559 513.11346593 255.57675362 513.1022501 C254.91362928 513.10181213 254.25050494 513.10137416 253.56728593 513.10092292 C248.18266132 513.09731629 242.79803686 513.09348142 237.41341241 513.08963198 C216.4126145 513.07478636 195.41194666 513.08356261 174.41116333 513.11158752 C150.80131537 513.14303412 127.1915255 513.15791152 103.58165252 513.14778751 C101.06293799 513.14676497 98.54422344 513.14577036 96.02550888 513.144804 C94.78629768 513.14432761 93.54708649 513.14385122 92.27032343 513.14336039 C83.54543675 513.14119731 74.8206107 513.15099482 66.09573746 513.16557503 C55.45874462 513.18310279 44.82192852 513.18297453 34.18494262 513.16022337 C28.75961437 513.14908513 23.33459744 513.14590952 17.90928268 513.16452408 C12.93861127 513.18135903 7.96852199 513.17493666 2.99788807 513.15030729 C1.20390982 513.14543353 -0.59011566 513.1489136 -2.38405429 513.16179473 C-15.81154291 513.2512183 -26.56786764 511.39190673 -37.24069214 502.45606995 C-40.55608558 499.18022394 -43.07853195 495.65483192 -45.20553589 491.5146637 C-45.6967383 490.61819038 -45.6967383 490.61819038 -46.197864 489.70360649 C-50.25828508 481.21789401 -49.76621139 472.48578577 -49.72019958 463.30912781 C-49.72552904 461.4528838 -49.73259702 459.5966441 -49.74124664 457.74041259 C-49.759848 452.65537203 -49.75357755 447.57062321 -49.74309361 442.48557067 C-49.7360945 436.99532404 -49.75210499 431.5051369 -49.76509094 426.01490784 C-49.78672452 415.2652091 -49.78660561 404.51561625 -49.7784654 393.76590289 C-49.77216335 385.02767502 -49.77330432 376.28947801 -49.77973747 367.55125046 C-49.78063913 366.30715747 -49.78154078 365.06306449 -49.78246976 363.78127172 C-49.78432098 361.25382583 -49.78618354 358.72637994 -49.78805732 356.19893406 C-49.79992608 339.23160328 -49.80433812 322.26428517 -49.79312229 305.2969532 C-49.79246534 304.3022667 -49.79246534 304.3022667 -49.79179511 303.28748552 C-49.78818849 297.9028609 -49.78435361 292.51823644 -49.78050418 287.133612 C-49.76565855 266.13281409 -49.7744348 245.13214625 -49.80245972 224.13136292 C-49.83390631 200.52151495 -49.84878372 176.91172509 -49.8386597 153.30185211 C-49.83763717 150.78313757 -49.83664256 148.26442302 -49.83567619 145.74570847 C-49.8351998 144.50649727 -49.83472341 143.26728607 -49.83423259 141.99052302 C-49.8320695 133.26563633 -49.84186701 124.54081028 -49.85644722 115.81593704 C-49.87397498 105.17894421 -49.87384672 94.54212811 -49.85109556 83.9051422 C-49.83995732 78.47981395 -49.83678171 73.05479703 -49.85539627 67.62948227 C-49.87223122 62.65881085 -49.86580886 57.68872157 -49.84117948 52.71808766 C-49.83630572 50.9241094 -49.8397858 49.13008393 -49.85266692 47.3361453 C-49.94209049 33.90865667 -48.08277893 23.15233195 -39.14694214 12.47950745 C-35.87109613 9.164114 -32.34570411 6.64166763 -28.20553589 4.5146637 C-27.60788701 4.18719542 -27.01023813 3.85972715 -26.39447868 3.52233559 C-17.90876621 -0.5380855 -9.17665796 -0.0460118 0 0 Z M102.79446411 122.5146637 C102.70390589 146.42064179 102.63033262 170.32647938 102.58721542 194.23258591 C102.56665652 205.33448714 102.5386646 216.43627364 102.4927063 227.5381012 C102.45263308 237.22298969 102.42698292 246.90779503 102.41811013 256.59276414 C102.41292982 261.71315458 102.400896 266.83330725 102.37154388 271.95362091 C102.34404975 276.7897815 102.33608647 281.62561025 102.34203339 286.46184158 C102.34094813 288.22082203 102.33319937 289.97981558 102.31764221 291.73872757 C102.17630526 308.56824139 104.17242543 325.29300409 111.79446411 340.5146637 C112.21212036 341.42087463 112.62977661 342.32708557 113.06008911 343.26075745 C116.99054284 351.22331458 122.58755399 357.30338097 128.79446411 363.5146637 C129.57692505 364.32032776 130.35938599 365.12599182 131.16555786 365.95606995 C153.3082061 387.42659733 184.59079136 391.31534305 214.01475525 390.91012573 C224.26914175 390.69087063 233.93169127 389.31648315 243.79446411 386.5146637 C244.46671021 386.33274475 245.1389563 386.15082581 245.83157349 385.96339417 C267.39725978 380.00781594 286.72357938 367.29732288 298.04446411 347.6396637 C306.05582024 333.18523983 310.98322877 318.20742034 310.91471863 301.57363892 C310.91557305 300.80403365 310.91642748 300.03442839 310.91730779 299.24150175 C310.91894663 296.67896712 310.91346752 294.11649887 310.9079895 291.55397034 C310.90770726 289.71059674 310.90786609 287.86722302 310.90843201 286.02384949 C310.90871853 281.03061171 310.90284514 276.03739803 310.89585805 271.04416585 C310.88960047 265.82180355 310.88901881 260.59944067 310.88783264 255.3770752 C310.88472642 245.49270652 310.87652258 235.60834893 310.86648315 225.72398514 C310.85530001 214.46889939 310.84980601 203.21381311 310.84478772 191.95872319 C310.83433938 168.8106958 310.8160027 145.6626836 310.79446411 122.5146637 C290.00446411 122.5146637 269.21446411 122.5146637 247.79446411 122.5146637 C247.77464478 127.96514221 247.75482544 133.41562073 247.73440552 139.03126526 C247.66747086 157.04837746 247.58993009 175.06543252 247.50693703 193.08247757 C247.45688161 204.0051713 247.41043801 214.92785779 247.37258911 225.8506012 C247.33957881 235.37430904 247.299698 244.89795952 247.25167406 254.42160392 C247.22649873 259.46114826 247.20469125 264.50065499 247.19112015 269.54024506 C247.17821806 274.29100012 247.1560771 279.04162557 247.12708092 283.79230881 C247.11806846 285.52881589 247.11232985 287.2653438 247.11025047 289.00187302 C247.06537371 320.80817532 247.06537371 320.80817532 236.73196411 332.4521637 C226.22407122 341.89772016 212.07886852 342.14069904 198.79446411 341.5146637 C190.6948196 340.63208174 182.60122926 337.32142884 176.79446411 331.5146637 C168.98454089 320.85571236 166.6548888 308.83626611 166.63624573 295.80142212 C166.62883876 294.68376619 166.62883876 294.68376619 166.62128216 293.54353136 C166.606008 291.0639402 166.5975741 288.58437472 166.58914185 286.10475159 C166.57955538 284.32048825 166.56954485 282.53622715 166.55914307 280.75196838 C166.53217121 275.91990672 166.51111997 271.08783536 166.49114108 266.2557404 C166.46923378 261.20152231 166.44186835 256.14733383 166.41508484 251.09313965 C166.365222 241.52753622 166.32025945 231.9619163 166.27706248 222.39628071 C166.22763525 211.50392395 166.1727375 200.61159691 166.11738288 189.71926892 C166.00366125 167.31776023 165.89752302 144.91622415 165.79446411 122.5146637 C145.00446411 122.5146637 124.21446411 122.5146637 102.79446411 122.5146637 Z " fill="#000000" transform="translate(49.205535888671875,-0.5146636962890625)"/>
</svg>
